<?xml version="1.0" encoding="UTF-8"?>
<svg id="_レイヤー_1" data-name="レイヤー_1" xmlns="http://www.w3.org/2000/svg" version="1.1" viewBox="0 0 128.3067017 111.5935364">
  <!-- Generator: Adobe Illustrator 29.6.1, SVG Export Plug-In . SVG Version: 2.1.1 Build 9)  -->
  <defs>
    <style>
      .st0 {
        fill: #4d383f;
      }
    </style>
  </defs>
  <path class="st0" d="M20.1654663,26.7774658c.9182739-3.4453735,1.3630371-5.1748047,2.2233887-8.6465454-3.4457397-2.3979187-5.1881714-3.5713806-8.7104492-5.8658142-2.1657715,1.5598755-3.2423096,2.3459778-5.3825684,3.9302673-2.9706421,2.1622314-3.232605,3.9497986.0597534,6.4114685-.0733032.1116943-.1099854.167511-.1832886.2792053-3.2359619-2.1244202-4.8707275-3.1638489-8.1723022-5.1957092.0700073-.1138.1050415-.1706543.1750488-.2844543,1.9716187.9187012,3.8432617.6174316,7.4223022-1.9549866,7.0689697-5.2608948,10.6743774-7.8258667,18.0195312-12.8166199.2001953-1.0526123.2988892-1.5794373.4935303-2.6342773,1.5236206.613739,3.4525146.9631042,4.8898315.5801697.1068726.0730591.1602173.1096191.2670288.1827698-.4833374,1.4404297-.6418457,2.0897522-1.2507324,4.9704285-1.9615479,8.821991-3.0374146,13.1933594-5.3721313,21.8469849-1.0925903,4.2676086-1.0532837,5.3249512.9884644,7.1739502-.0802612.106781-.1204224.1601562-.2006836.2669678-3.8008423-2.8574829-5.7282715-4.2532043-9.6342773-6.9758911.076416-.1095886.114563-.1643677.190979-.2739868,2.9620361,1.809906,3.593811,1.1528931,4.1765747-.993927ZM22.5785522,17.2446899c1.3071289-5.3563232,1.9261475-8.0501709,3.0934448-13.4668579-4.5645752,3.1295166-6.8209229,4.7208252-11.2798462,7.9547119,3.3081055,2.1591187,4.9456787,3.2618408,8.1864014,5.512146Z"/>
  <path class="st0" d="M29.418335,34.7436523c6.1155396-7.9837341,9.1738281-11.9751587,15.2895508-19.9586792,1.0413818-1.3594055.7935181-2.0905457-1.5341797-4.0451355.0802612-.1070557.1203613-.160553.2006836-.2676086,3.9176636,2.938385,5.8508301,4.4402466,9.663269,7.5066223,5.553772,4.4669495,7.0958252,9.0952148,4.1877441,12.4877014-2.8269653,3.2980042-6.9660645,2.1257019-9.8942261.7442322-.0212402.0257568-.0318604.0386963-.0530396.0644531,3.1326904,3.0097351,5.2229614,7.8016357,1.8296509,11.7138367-3.5846558,4.132782-9.7144775,3.0417175-14.8959351-1.1333618-3.5810547-2.8855286-5.397644-4.2980957-9.0803833-7.0602722.0801392-.1068726.1202393-.1603088.2003784-.2671814,2.3282471,1.5375061,3.0454102,1.5744324,4.0864868.2153931ZM43.6491699,28.1697083c3.7299194,2.9836121,7.3502197,2.7185974,9.8135986-.2301941,2.8381348-3.3973389,2.0582886-7.1160583-1.4165649-9.899292-.9028931-.7232056-1.355835-1.0830078-2.2646484-1.7991028-3.2565918,4.1334534-4.8850098,6.2000732-8.1417236,10.3334045.8061523.6351624,1.2080688.9542236,2.0093384,1.5951843ZM34.2034302,40.9916687c3.9156494,3.1444397,7.9384766,2.6898804,10.925415-.8554077,3.1750488-3.7686157,2.3370972-8.0465698-1.4494019-11.0856934-.9777222-.7847595-1.4683228-1.1749268-2.4533081-1.9509888-3.2670288,4.1463623-4.9005127,6.2195435-8.1672974,10.3660889-.9561157,1.2135925-.9285889,1.861084,1.1445923,3.526001Z"/>
  <path class="st0" d="M54.5526123,39.5358276c6.27771-7.1596375,16.3621826-6.9331665,23.3096313-.2252502,6.8477173,6.6115723,7.399231,16.2154236.74646,22.4917908-6.9266357,6.534668-16.479187,5.7200317-22.8685303-.4270325-6.1769409-5.9427185-7.2174072-14.9625244-1.187561-21.8395081ZM56.8675537,61.4193115c4.1468506,4.0100403,11.0195312,3.3186035,17.0056152-2.5066833,6.0458984-5.8835449,8.1347046-14.5799255,2.7727051-19.7294617-4.4348145-4.2590637-11.559021-3.2960815-17.1346436,2.8673706-5.6876221,6.2872925-7.427002,14.7433472-2.6436768,19.3687744Z"/>
  <path class="st0" d="M78.4041138,68.5717163c5.0102539-4.5959778,7.5154419-6.8938904,12.5253296-11.4902039,1.2618408-1.1576538,1.145752-1.9203491-.835144-4.2798462.0976562-.0914612.1464844-.1371765.2441406-.2286377,3.3543091,3.5817871,5.0015869,5.4016113,8.234314,9.0971985-.100708.0880737-.151062.1321411-.25177.2202148-2.1217651-2.1719666-2.8686523-2.3633728-4.1459351-1.2228088-4.9967651,4.461792-7.4954224,6.6924744-12.4924927,11.1539307-5.3274536,4.7563477-4.9296265,9.4397583-1.6544189,13.3103027,3.029541,3.5801697,7.3997803,5.170166,13.2307129.4918213,4.4822388-3.5962524,6.7234497-5.3942871,11.2055664-8.9906616,2.6712036-2.1433716,2.6143188-3.9809265.1987915-7.2909241.1030273-.0853271.154541-.1279907.2576294-.2133484,2.8866577,3.4862061,4.3034668,5.2528076,7.0822144,8.8310547-.1056519.0820618-.1585083.1230774-.2641602.2051392-2.2008057-2.4255981-3.9742432-2.8890991-6.6514282-.7532043-4.4921875,3.5838318-6.7383423,5.3755798-11.2306519,8.9592896-6.3012695,5.0267944-11.6306152,3.5665894-16.1710815-1.7372742-4.5947876-5.3674011-5.0367432-10.7827759.7183838-16.0620422Z"/>
  <path class="st0" d="M96.5304565,103.6004028c8.7729492-6.3704224,13.1601562-9.5549622,21.9331055-15.9253845-.5082397-.7000122-.7634277-1.0491943-1.2757568-1.7459717-3.0523682-4.1512146-5.3306885-5.2360229-11.2446899-4.0595398-.0887451-.1138611-.1331177-.1707458-.2219849-.2844849,2.7436523-1.3181763,4.1191406-1.9714355,6.8770752-3.2662354.4316406.8308105,1.5161133,2.3790588,2.6244507,3.8503113,4.2463989,5.6369324,6.3035278,8.5104675,10.2782593,14.3606873,1.0380859,1.527832,2.1563721,3.0575256,2.8057861,3.7375183-2.1141357,2.1945801-3.1756592,3.2865295-5.307312,5.4599609-.0793457-.1212463-.1190186-.1818237-.1984253-.3029785,3.0159302-5.2265015,2.6932983-7.7771912-.2285767-11.9720764-.494873-.7104797-.7433472-1.0649414-1.2423096-1.7722473-8.8590698,6.2500916-13.2893677,9.3744812-22.1483765,15.6246643-1.3988037.986908-1.3895264,1.7056274.0598145,4.0991516-.1099854.0758972-.164917.1138611-.2749023.1897583-2.5645142-3.7151184-3.8775635-5.54953-6.5629883-9.1696472.1072998-.0796204.1608887-.1193848.2681885-.1990051,1.795105,2.1395874,2.4733887,2.3814392,3.8586426,1.3755188Z"/>
</svg>