<?xml version="1.0" encoding="UTF-8"?>
<svg id="_レイヤー_1" data-name="レイヤー_1" xmlns="http://www.w3.org/2000/svg" version="1.1" viewBox="0 0 575.6962891 91.7436523">
  <!-- Generator: Adobe Illustrator 29.6.1, SVG Export Plug-In . SVG Version: 2.1.1 Build 9)  -->
  <path d="M9.7128906,83.7866211V12.1699219c0-4.5634766-1.6386719-5.5-9.7128906-5.9677734v-.8193359h27.7338867c18.2548828,0,29.0205078,6.9042969,29.0205078,19.5419922,0,12.4042969-10.765625,17.5537109-18.9570312,19.4257812v.234375c11.8193359,1.1699219,24.3398438,7.2548828,24.3398438,21.7661133,0,15.4462891-14.6269531,24.2226562-33.2333984,24.2226562H0v-.8193359c8.0742188-.4677734,9.7128906-1.4042969,9.7128906-5.9677734ZM26.2124023,44.1162109c14.2763672,0,21.765625-7.0205078,21.765625-17.9033203,0-12.5214844-8.3085938-18.9580078-21.2978516-18.9580078h-7.9570312v36.8613281h7.4892578ZM28.2016602,88.7016602c15.5634766,0,24.3398438-8.1914062,24.3398438-21.1806641,0-14.043457-10.2978516-21.5327148-25.0419922-21.5327148h-8.7763672v37.4467773c0,3.9794922,1.0527344,5.2666016,9.4785156,5.2666016Z"/>
  <path d="M73.0161133,84.137207v-35.2231445c0-7.0205078-2.1064453-9.0107422-6.9042969-9.8291016v-.7021484c5.03125-.7021484,10.8828125-2.9257812,15.0957031-5.1494141h.5849609l-.9365234,13.6914062c1.6386719-2.5742188,3.3935547-4.7978516,5.5-7.0214844,3.8613281-4.3291016,7.9570312-6.6699219,12.1699219-6.6699219,3.1601562,0,5.0322266,1.8720703,5.0322266,4.6806641,0,2.6914062-2.1064453,4.6806641-4.7978516,4.6806641-3.1591797,0-4.6806641-2.4570312-7.2548828-2.4570312-3.3935547,0-7.0214844,3.3935547-10.4150391,8.7763672v35.2231445c0,4.6816406,1.7548828,5.1494141,10.1806641,5.6171875v.8193359h-26.0957031v-.8193359c6.2021484-.4677734,7.8408203-.9355469,7.8408203-5.6171875Z"/>
  <path d="M135.1499023,81.6801758c-6.0849609,6.5527344-11.4677734,9.8300781-17.4365234,9.8300781-7.0205078,0-12.0527344-4.6806641-12.0527344-11.46875,0-5.3828125,3.0429688-9.2441406,15.6806641-12.9882812l13.8085938-4.0957031v-12.2875977c0-7.2558594-3.1601562-11.9365234-9.7128906-11.9365234-4.7978516,0-12.4042969,3.7451172-12.4042969,6.2021484,0,1.1699219,1.4042969,3.6279297,1.4042969,5.6171875,0,2.4570312-1.6376953,3.7441406-3.8613281,3.7441406-1.8720703,0-3.6279297-1.0527344-3.6279297-3.1591797,0-2.5742188,2.3408203-6.2021484,6.0849609-9.4785156,5.1494141-4.6806641,11.234375-7.9570312,16.8505859-7.9570312,7.9580078,0,13.3408203,4.9140625,13.3408203,15.0947266v32.4155273c0,3.3935547,1.2871094,5.7333984,4.0957031,5.7333984,2.5742188,0,4.5634766-2.1064453,6.3193359-4.6806641l.7021484.46875c-1.9902344,3.9785156-5.734375,8.7763672-11.8193359,8.7763672-6.2021484,0-7.2548828-5.0322266-7.3720703-9.8300781ZM122.394043,86.4780273c4.2128906,0,8.3085938-2.4570312,12.7558594-6.6699219v-15.2128906l-11.3515625,3.6279297c-7.0205078,2.1064453-10.0634766,4.7978516-10.0634766,9.5957031,0,5.3828125,3.5107422,8.6591797,8.6591797,8.6591797Z"/>
  <path d="M196.581543,84.137207v-30.659668c0-10.1806641-4.9150391-14.7441406-12.6386719-14.7441406-5.265625,0-9.8291016,2.8085938-14.6269531,6.4365234v38.9672852c0,4.6816406,1.6376953,5.1494141,7.3720703,5.6171875v.8193359h-23.2871094v-.8193359c6.2021484-.4677734,7.8408203-.9355469,7.8408203-5.6171875v-35.2231445c0-7.0205078-2.1064453-9.0107422-6.9042969-9.8291016v-.7021484c5.03125-.7021484,10.8828125-2.9257812,15.0957031-5.1494141h.5849609l-.9365234,10.765625c5.734375-5.3828125,11.8193359-10.296875,20.4785156-10.296875,9.3613281,0,15.0957031,6.0849609,15.0957031,18.2548828v32.1801758c0,4.6816406,1.6386719,5.1494141,7.8398438,5.6171875v.8193359h-23.2861328v-.8193359c5.7333984-.4677734,7.3720703-.9355469,7.3720703-5.6171875Z"/>
  <path d="M214.8325195,63.8930664c0-18.605957,12.7548828-30.190918,28.4355469-30.190918,5.1484375,0,9.9462891,1.0527344,14.2763672,3.2763672v-17.5537109c0-10.296875-1.0537109-12.4033203-6.7871094-13.3398438v-.7021484c5.1484375-.7021484,10.5317383-2.6914062,14.9790039-5.3828125h.7021484c-.7021484,4.6806641-.7021484,10.0634766-.7021484,19.4248047v60.3833008c0,6.4355469,1.0527344,7.4892578,7.2548828,7.4892578v.9355469c-5.3828125.3515625-10.765625,1.6386719-15.4467773,3.5107422h-.7021484l.9365234-9.1269531c-4.7978516,4.6806641-11.46875,8.6591797-19.1914062,8.6591797-13.2236328,0-23.7548828-10.765625-23.7548828-27.3828125ZM243.5024414,86.4780273c4.3291016,0,9.1269531-1.5214844,14.0419922-5.265625v-32.7661133c0-6.7871094-5.8505859-12.9892578-14.9785156-12.9892578-10.5322266,0-19.1914062,9.1279297-19.1914062,24.809082,0,16.1484375,7.7236328,26.2119141,20.1279297,26.2119141Z"/>
  <path d="M306.6855469,77.5844727V18.3720703c0-9.1279297-2.6914062-11.4677734-11.4677734-12.1699219v-.8193359h19.5419922l49.9677734,69.3930664V18.3720703c0-9.1279297-2.8085938-11.4677734-14.8613281-12.1699219v-.8193359h28.7861328v.8193359c-8.6591797.7021484-11.4677734,3.0419922-11.4677734,12.1699219v73.371582h-.8193359l-57.1054688-78.1694336v64.0102539c0,9.1279297,2.6914062,11.4677734,14.7451172,12.1699219v.8193359h-28.7871094v-.8193359c8.7763672-.7021484,11.4677734-3.0419922,11.4677734-12.1699219Z"/>
  <path d="M410.7099609,81.6801758c-6.0849609,6.5527344-11.4677734,9.8300781-17.4365234,9.8300781-7.0205078,0-12.0527344-4.6806641-12.0527344-11.46875,0-5.3828125,3.0429688-9.2441406,15.6806641-12.9882812l13.8085938-4.0957031v-12.2875977c0-7.2558594-3.1601562-11.9365234-9.7128906-11.9365234-4.7978516,0-12.4042969,3.7451172-12.4042969,6.2021484,0,1.1699219,1.4042969,3.6279297,1.4042969,5.6171875,0,2.4570312-1.6376953,3.7441406-3.8613281,3.7441406-1.8720703,0-3.6279297-1.0527344-3.6279297-3.1591797,0-2.5742188,2.3408203-6.2021484,6.0849609-9.4785156,5.1494141-4.6806641,11.234375-7.9570312,16.8505859-7.9570312,7.9580078,0,13.3408203,4.9140625,13.3408203,15.0947266v32.4155273c0,3.3935547,1.2871094,5.7333984,4.0957031,5.7333984,2.5742188,0,4.5634766-2.1064453,6.3193359-4.6806641l.7021484.46875c-1.9902344,3.9785156-5.734375,8.7763672-11.8193359,8.7763672-6.2021484,0-7.2548828-5.0322266-7.3720703-9.8300781ZM397.9541016,86.4780273c4.2128906,0,8.3085938-2.4570312,12.7558594-6.6699219v-15.2128906l-11.3515625,3.6279297c-7.0205078,2.1064453-10.0634766,4.7978516-10.0634766,9.5957031,0,5.3828125,3.5107422,8.6591797,8.6591797,8.6591797Z"/>
  <path d="M506.5449219,84.137207v-30.659668c0-10.1806641-4.4462891-14.7441406-12.1699219-14.7441406-5.5,0-10.1806641,3.0429688-15.2119141,6.9042969.3505859,1.8720703.5849609,3.9785156.5849609,6.3193359v32.1801758c0,4.6816406,1.6376953,5.1494141,7.8398438,5.6171875v.8193359h-23.2871094v-.8193359c5.734375-.4677734,7.3730469-.9355469,7.3730469-5.6171875v-30.659668c0-10.1806641-4.4472656-14.7441406-12.1708984-14.7441406-5.265625,0-9.8291016,2.8085938-14.6269531,6.4365234v38.9672852c0,4.6816406,1.6376953,5.1494141,7.3720703,5.6171875v.8193359h-23.2871094v-.8193359c6.2021484-.4677734,7.8408203-.9355469,7.8408203-5.6171875v-35.2231445c0-7.0205078-2.1064453-9.0107422-6.9042969-9.8291016v-.7021484c5.03125-.7021484,10.8828125-2.9257812,15.0957031-5.1494141h.5849609l-.9365234,10.765625c5.734375-5.3828125,11.8193359-10.296875,20.4785156-10.296875,7.1386719,0,11.8193359,3.5097656,13.6914062,10.53125,5.9677734-5.5,12.4042969-10.53125,21.1806641-10.53125,9.3613281,0,14.6269531,6.0849609,14.6269531,18.2548828v32.1801758c0,4.6816406,1.6386719,5.1494141,7.8408203,5.6171875v.8193359h-23.2871094v-.8193359c5.734375-.4677734,7.3720703-.9355469,7.3720703-5.6171875Z"/>
  <path d="M524.7929688,62.9575195c0-17.2026367,11.3505859-29.7241211,26.796875-29.7241211,13.2236328,0,21.4150391,7.8408203,21.6494141,21.1806641h-40.2548828c-.1171875,1.2871094-.234375,2.6914062-.234375,4.0957031,0,16.9682617,9.7128906,27.5004883,21.765625,27.5004883,8.1914062,0,15.4462891-5.0322266,20.3613281-14.0429688l.8193359.46875c-5.0322266,12.8720703-15.0957031,19.3076172-25.1591797,19.3076172-14.2763672,0-25.7441406-10.765625-25.7441406-28.7861328ZM561.5371094,52.5419922c2.3398438,0,2.9248047-.7021484,2.9248047-3.1601562,0-6.7871094-4.3291016-14.3925781-13.6904297-14.3925781-8.6601562,0-15.7978516,6.2021484-17.5537109,17.5527344h28.3193359Z"/>
</svg>