<?xml version="1.0" encoding="UTF-8"?>
<svg id="_レイヤー_1" data-name="レイヤー_1" xmlns="http://www.w3.org/2000/svg" version="1.1" viewBox="0 0 702.5361328 122.1689453">
  <!-- Generator: Adobe Illustrator 29.6.1, SVG Export Plug-In . SVG Version: 2.1.1 Build 9)  -->
  <path d="M9.7128906,83.7861328V12.1699219c0-4.5634766-1.6386719-5.5-9.7128906-5.9677734v-.8193359h27.734375c18.2548828,0,29.0205078,6.9042969,29.0205078,19.5419922,0,12.4042969-10.765625,17.5537109-18.9570312,19.4257812v.234375c11.8183594,1.1699219,24.3398438,7.2548828,24.3398438,21.765625,0,15.4462891-14.6269531,24.2226562-33.2333984,24.2226562H0v-.8193359c8.0742188-.4677734,9.7128906-1.4042969,9.7128906-5.9677734ZM26.2128906,44.1162109c14.2763672,0,21.765625-7.0205078,21.765625-17.9033203,0-12.5214844-8.3085938-18.9580078-21.2978516-18.9580078h-7.9570312v36.8613281h7.4892578ZM28.2021484,88.7011719c15.5634766,0,24.3398438-8.1914062,24.3398438-21.1806641,0-14.0429688-10.2978516-21.5322266-25.0419922-21.5322266h-8.7763672v37.4462891c0,3.9794922,1.0527344,5.2666016,9.4785156,5.2666016Z"/>
  <path d="M70.6748047,84.1367188v-35.2226562c0-7.0214844-2.1054688-9.0107422-6.9033203-9.8291016v-.7021484c5.03125-.7021484,10.8828125-2.9257812,15.0947266-5.1494141h.5859375l-.9365234,13.6914062c1.6386719-2.5742188,3.3935547-4.7978516,5.5-7.0214844,3.8613281-4.3291016,7.9570312-6.6699219,12.1699219-6.6699219,3.1591797,0,5.0322266,1.8720703,5.0322266,4.6806641,0,2.6914062-2.1064453,4.6806641-4.7978516,4.6806641-3.1601562,0-4.6806641-2.4570312-7.2558594-2.4570312-3.3935547,0-7.0205078,3.3935547-10.4140625,8.7763672v35.2226562c0,4.6816406,1.7548828,5.1494141,10.1806641,5.6171875v.8193359h-26.0957031v-.8193359c6.2021484-.4677734,7.8398438-.9355469,7.8398438-5.6171875Z"/>
  <path d="M132.8095703,81.6796875c-6.0849609,6.5527344-11.4677734,9.8300781-17.4355469,9.8300781-7.0214844,0-12.0527344-4.6816406-12.0527344-11.46875,0-5.3828125,3.0419922-9.2441406,15.6806641-12.9882812l13.8076172-4.0957031v-12.2871094c0-7.2558594-3.1591797-11.9365234-9.7119141-11.9365234-4.7978516,0-12.4042969,3.7451172-12.4042969,6.2021484,0,1.1699219,1.4042969,3.6279297,1.4042969,5.6171875,0,2.4570312-1.6386719,3.7441406-3.8613281,3.7441406-1.8730469,0-3.6279297-1.0527344-3.6279297-3.1591797,0-2.5742188,2.3398438-6.2021484,6.0849609-9.4785156,5.1484375-4.6806641,11.2333984-7.9570312,16.8505859-7.9570312,7.9580078,0,13.3408203,4.9140625,13.3408203,15.0947266v32.4150391c0,3.3935547,1.2871094,5.7333984,4.0957031,5.7333984,2.5742188,0,4.5634766-2.1064453,6.3183594-4.6806641l.7021484.46875c-1.9892578,3.9785156-5.7333984,8.7763672-11.8183594,8.7763672-6.2021484,0-7.2558594-5.0322266-7.3730469-9.8300781ZM120.0546875,86.4775391c4.2128906,0,8.3085938-2.4570312,12.7548828-6.6699219v-15.2128906l-11.3505859,3.6279297c-7.0214844,2.1064453-10.0634766,4.7978516-10.0634766,9.5957031,0,5.3828125,3.5107422,8.6591797,8.6591797,8.6591797Z"/>
  <path d="M194.2421875,84.1367188v-30.6591797c0-10.1806641-4.9150391-14.7441406-12.6376953-14.7441406-5.2666016,0-9.8300781,2.8085938-14.6279297,6.4365234v38.9667969c0,4.6816406,1.6386719,5.1494141,7.3720703,5.6171875v.8193359h-23.2861328v-.8193359c6.2011719-.4677734,7.8398438-.9355469,7.8398438-5.6171875v-35.2226562c0-7.0214844-2.1064453-9.0107422-6.9042969-9.8291016v-.7021484c5.0322266-.7021484,10.8828125-2.9257812,15.0957031-5.1494141h.5849609l-.9365234,10.765625c5.734375-5.3828125,11.8193359-10.296875,20.4785156-10.296875,9.3623047,0,15.0957031,6.0849609,15.0957031,18.2548828v32.1796875c0,4.6816406,1.6386719,5.1494141,7.8408203,5.6171875v.8193359h-23.2871094v-.8193359c5.7333984-.4677734,7.3720703-.9355469,7.3720703-5.6171875Z"/>
  <path d="M212.4931641,63.8925781c0-18.6054688,12.7558594-30.1904297,28.4365234-30.1904297,5.1484375,0,9.9462891,1.0527344,14.2763672,3.2763672v-17.5527344c0-10.2978516-1.0537109-12.4042969-6.7871094-13.3408203v-.7021484c5.1484375-.7021484,10.53125-2.6914062,14.9785156-5.3828125h.7021484c-.7021484,4.6806641-.7021484,10.0634766-.7021484,19.4257812v60.3818359c0,6.4355469,1.0527344,7.4892578,7.2548828,7.4892578v.9355469c-5.3828125.3515625-10.765625,1.6386719-15.4462891,3.5107422h-.7021484l.9355469-9.1269531c-4.7978516,4.6806641-11.4677734,8.6591797-19.1904297,8.6591797-13.2236328,0-23.7558594-10.765625-23.7558594-27.3828125ZM241.1630859,86.4775391c4.3300781,0,9.1279297-1.5214844,14.0429688-5.265625v-32.765625c0-6.7871094-5.8515625-12.9892578-14.9785156-12.9892578-10.5322266,0-19.1914062,9.1279297-19.1914062,24.8085938,0,16.1484375,7.7236328,26.2119141,20.1269531,26.2119141Z"/>
  <path d="M294.984375,49.265625c0-26.5634766,20.2441406-45.0527344,43.6484375-45.0527344,16.8505859,0,24.3398438,6.3193359,27.03125,6.3193359,1.5214844,0,2.5742188-1.0537109,3.0429688-5.1494141h.9355469l2.9257812,25.5107422h-.8193359c-6.7871094-18.2558594-20.0097656-24.6914062-33.1162109-24.6914062-18.4892578,0-33.3505859,15.2128906-33.3505859,38.9677734,0,26.796875,15.7978516,42.1269531,35.5742188,42.1269531,14.3935547,0,25.8613281-9.0107422,32.6484375-22.3505859l1.1699219.4677734c-6.9042969,15.3291016-20.3613281,26.3291016-38.9677734,26.3291016-22.8183594,0-40.7226562-17.3183594-40.7226562-42.4775391Z"/>
  <path d="M378.1796875,63.1904297c0-18.0205078,12.5214844-29.9570312,28.6699219-29.9570312,15.4462891,0,27.8505859,11.4677734,27.8505859,28.5527344,0,18.0214844-12.6386719,29.9570312-28.7871094,29.9570312-15.3291016,0-27.7333984-11.4677734-27.7333984-28.5527344ZM407.5517578,89.9882812c10.4140625,0,18.3720703-9.3613281,18.3720703-25.0419922,0-15.7978516-8.1914062-29.9570312-20.5957031-29.9570312-10.4150391,0-18.3720703,9.3613281-18.3720703,25.0419922,0,15.7978516,8.0742188,29.9570312,20.5957031,29.9570312Z"/>
  <path d="M481.0361328,84.1367188v-30.6591797c0-10.1806641-4.9150391-14.7441406-12.6386719-14.7441406-5.265625,0-9.8291016,2.8085938-14.6269531,6.4365234v38.9667969c0,4.6816406,1.6376953,5.1494141,7.3720703,5.6171875v.8193359h-23.2871094v-.8193359c6.2021484-.4677734,7.8398438-.9355469,7.8398438-5.6171875v-35.2226562c0-7.0214844-2.1054688-9.0107422-6.9033203-9.8291016v-.7021484c5.03125-.7021484,10.8828125-2.9257812,15.0947266-5.1494141h.5859375l-.9365234,10.765625c5.734375-5.3828125,11.8193359-10.296875,20.4785156-10.296875,9.3613281,0,15.0957031,6.0849609,15.0957031,18.2548828v32.1796875c0,4.6816406,1.6376953,5.1494141,7.8398438,5.6171875v.8193359h-23.2871094v-.8193359c5.734375-.4677734,7.3730469-.9355469,7.3730469-5.6171875Z"/>
  <path d="M499.2871094,63.1904297c0-17.6699219,12.1708984-29.9570312,28.9042969-29.9570312,12.2871094,0,20.5957031,6.9042969,20.5957031,11.8193359,0,2.3398438-1.7558594,3.9785156-3.9785156,3.9785156-2.2236328,0-3.3935547-1.4042969-4.5644531-3.9785156-3.3935547-7.6064453-7.4892578-10.0634766-13.4570312-10.0634766-11,0-19.3085938,8.5419922-19.3085938,23.5205078,0,16.9677734,10.0644531,27.5,22.3515625,27.5,8.6591797,0,16.6162109-5.2666016,21.4140625-14.0429688l.8193359.46875c-5.265625,13.2226562-16.0322266,19.3076172-26.3291016,19.3076172-14.6279297,0-26.4472656-11.2333984-26.4472656-28.5527344Z"/>
  <path d="M554.2822266,62.9570312c0-17.2021484,11.3515625-29.7236328,26.7978516-29.7236328,13.2226562,0,21.4140625,7.8408203,21.6484375,21.1806641h-40.2548828c-.1171875,1.2871094-.234375,2.6914062-.234375,4.0957031,0,16.9677734,9.7128906,27.5,21.7666016,27.5,8.1904297,0,15.4462891-5.0322266,20.3613281-14.0429688l.8183594.46875c-5.03125,12.8720703-15.0947266,19.3076172-25.1591797,19.3076172-14.2763672,0-25.7441406-10.765625-25.7441406-28.7861328ZM591.0263672,52.5419922c2.3408203,0,2.9257812-.7021484,2.9257812-3.1591797,0-6.7880859-4.3300781-14.3935547-13.6914062-14.3935547-8.6591797,0-15.7978516,6.2021484-17.5527344,17.5527344h28.3183594Z"/>
  <path d="M613.1386719,115.7324219V48.9140625c0-7.0214844-2.1064453-9.0107422-6.7871094-9.8291016v-.7021484c4.9150391-.7021484,10.765625-2.9257812,14.9785156-5.1494141h.7021484l-.9365234,9.1279297c4.7978516-4.6806641,11.46875-8.6591797,19.1914062-8.6591797,13.2236328,0,23.7548828,10.765625,23.7548828,27.3818359,0,18.6064453-12.7548828,30.1914062-28.4355469,30.1914062-5.1484375,0-9.9462891-1.0527344-14.2763672-3.2763672v27.7333984c0,4.6806641,1.7548828,5.1484375,10.0634766,5.6171875v.8193359h-25.9785156v-.8193359c6.0859375-.46875,7.7236328-.9365234,7.7236328-5.6171875ZM636.3085938,89.5205078c10.5322266,0,19.1914062-9.1279297,19.1914062-24.8085938,0-16.1484375-7.7236328-26.2128906-20.1279297-26.2128906-4.3291016,0-9.1269531,1.5214844-14.0419922,5.2666016v32.765625c0,6.7871094,5.8505859,12.9892578,14.9785156,12.9892578Z"/>
  <path d="M674.1005859,79.2226562v-40.1376953h-6.6699219v-1.4042969c7.3720703-2.6914062,10.6484375-8.6601562,13.3398438-15.9150391h1.4042969v12.6386719h19.1914062l-.8193359,4.6806641h-18.3720703v38.3818359c0,7.1386719,3.8623047,9.5957031,9.2451172,9.5957031,3.8613281,0,7.3720703-1.2871094,10.53125-3.2763672l.5849609.7021484c-4.6806641,4.5634766-10.765625,7.2548828-16.3828125,7.2548828-6.7871094,0-12.0527344-3.6269531-12.0527344-12.5205078Z"/>
</svg>