<?xml version="1.0" encoding="UTF-8"?>
<svg id="_レイヤー_1" data-name="レイヤー_1" xmlns="http://www.w3.org/2000/svg" version="1.1" viewBox="0 0 114.919806 638.0157135">
  <!-- Generator: Adobe Illustrator 29.6.1, SVG Export Plug-In . SVG Version: 2.1.1 Build 9)  -->
  <defs>
    <style>
      .st0 {
        fill: #520f25;
      }
    </style>
  </defs>
  <path class="st0" d="M60.5385813,34.1466701l.6236324-1.0756904c5.5298779-9.5712396,11.7974457-20.4195676,24.7887223-20.4195676,5.1298336,0,9.8820794,1.7120156,13.3813797,4.820414,3.5888598,3.1880167,5.5653822,7.576255,5.5653822,12.3563716,0,13.4668562-12.0232528,19.7746326-23.9089267,24.2728454l23.2130431-1.0953066c-1.1105734-1.2952843-1.8846551-2.9946072-1.8846551-5.4760002,0-2.1611446.6873626-4.1237315,1.4832794-6.3960045,1.0656605-3.0422717,2.273338-6.490357,2.273338-11.6161077,0-7.7914996-2.6679679-14.9840422-7.5126136-20.2526088-5.1328515-5.5820692-12.1434348-8.5325623-20.2739113-8.5325623-7.0246962,0-12.9317182,2.3401748-18.058534,7.1543756-4.7668025,4.4761114-8.3741246,10.5537313-11.558147,15.9181594l-.5042493.8459779c-3.3898584,5.6899134-6.5917217,11.0642827-10.7664906,15.2036361-4.7474527,4.7069778-10.1003419,6.9951389-16.3645368,6.9951389-12.0574257,0-19.8483927-7.1690211-19.8483927-18.2637486C1.1869014,18.0608418,11.8092447,7.4092074,29.3227883,0L1.6670966,1.5162984c1.7647395,1.908798,2.7014307,3.8119153,2.7014307,6.5731707,0,2.2647283-.7786973,4.556706-1.6803281,7.2106498C1.4332122,18.9942489.0108226,23.181178.0108226,28.8965657c0,7.8070327,2.6596244,15.1085734,7.489092,20.5593656,5.3079763,5.990812,12.6904667,9.1575261,21.3492467,9.1575261,17.5151412,0,24.7209092-12.4381202,31.6894199-24.4667874Z"/>
  <path class="st0" d="M104.5711475,236.7773177v-26.8924388c-3.4416059,4.9650051-8.1587912,5.8563396-16.6666781,5.8563396H18.1801299c-8.1865733,0-12.8627512-.8271606-16.2704505-5.3130356,3.222012-3.998579,7.1577485-5.5084866,15.3455644-8.2771979l88.8374389-29.8461273-85.7725333-28.8718903c-8.462974-2.837057-13.7097942-5.7498269-17.5012058-10.8335937,3.3292349-3.5432368,7.8791063-4.2338835,15.3611863-4.2338835h69.7243395c8.5078869,0,13.2250722.8913346,16.6666781,5.8562509v-26.8924388c-3.4416059,4.9650938-8.1587912,5.8563396-16.6666781,5.8563396h-33.7938464v-33.9394139h33.7937577c8.5079756,0,13.2250722.8912458,16.6666781,5.8562509v-26.8925275c-3.4416059,4.9650938-8.1587024,5.8564284-16.6666781,5.8564284H18.1802187c-8.5079756,0-13.2250722-.8913346-16.6666781-5.8564284v26.8925275c3.4416059-4.9650051,8.1587024-5.8562509,16.6666781-5.8562509h33.7938464v33.9394139H18.1801299c-8.5078869,0-13.2250722-.8912458-16.6666781-5.8563396v23.345829h0v19.4305963c2.5709525-3.4921107,6.4742026-5.3156985,11.4661909-5.3156985,2.4733158,0,5.4084534.5385997,8.7265931,1.6015974l12.1521333,4.0018632v30.7584093l-15.5323168,4.9342939c-3.873249,1.1958724-6.7879715,1.7529343-9.1728817,1.7529343-3.2765998,0-5.7245301-1.1640961-7.6397188-3.7037161v26.7995063h0v25.8424001c3.4416059-4.9650051,8.1587912-5.8562509,16.6666781-5.8562509h69.7243395c8.5078869,0,13.2250722.8912458,16.6666781,5.8562509ZM35.9949271,151.0970955l45.4033858,14.9520884-45.4033858,14.4239624v-29.3760508Z"/>
  <path class="st0" d="M104.5711475,312.1524271v-19.1427455c-1.5355594,2.4616882-3.407078,4.2893589-5.7381992,5.6321746-3.5604564,2.0510814-8.2081421,3.0064567-14.6264255,3.0064567h-52.1419177l72.5065424-40.5099662v-20.6248266c-3.457139,4.9649163-8.1956269,5.8562509-16.7419471,5.8562509H20.5846562c-9.412358,0-15.3235517-2.5243532-19.0710268-8.3140336v19.0893115c1.5287249-2.461555,3.3918111-4.2893589,5.7124586-5.6323077,3.5445682-2.0510814,8.1713064-3.0064123,14.5606539-3.0064123h73.3034356L.0108226,301.648313v2.1365579h85.4032889c5.6825463,0,10.1039811.9651834,13.5169172,2.9504044,2.2485738,1.3080659,4.1123702,3.0949067,5.6401187,5.4171519Z"/>
  <path class="st0" d="M91.3443001,371.8316339c9.4984558-6.8512579,14.7294766-16.094083,14.7294766-26.0256909,0-9.9885035-5.230577-19.2516548-14.7284115-26.0832966-9.8005971-7.0493717-23.4036122-10.9316742-38.3030655-10.9316742s-28.5024684,3.8823025-38.3030655,10.9316742C5.2413996,326.5542882.0108226,335.8174395.0108226,345.8059429c0,9.9316079,5.2310208,19.174433,14.7295654,26.0256909,9.8244738,7.0864736,23.4269563,10.9891024,38.3019116,10.9891024s28.4775266-3.9026287,38.3020004-10.9891024ZM16.2556213,360.9580091c-9.9988885-3.1492282-15.0687199-8.247108-15.0687199-15.1520661,0-12.9165401,16.9620735-19.1954249,51.8553983-19.1954249,34.8934135,0,51.8553983,6.2788848,51.8553983,19.1954249,0,6.9049581-5.0698314,12.0028379-15.0687199,15.1520661-8.5180943,2.6828797-20.8949697,4.0432256-36.7866784,4.0432256s-28.268584-1.3603459-36.7866784-4.0432256Z"/>
  <path class="st0" d="M76.3581276,585.1223481c-4.4366129,6.9307431-6.5379328,16.0505459-6.5379328,25.5349332,0,14.5912097,8.4060784,27.3584322,18.9137429,27.3584322,7.4721387,0,14.0103378-6.3836224,14.7108369-18.7862383.2334405-4.3776314-.4670586-9.4843873-1.401087-13.4969461,8.8732257-5.8364573,13.3098386-15.1383526,12.8426913-22.251632-.2723177-4.5730824-2.4529896-8.3994213-6.0733595-10.7972018.0047931.0015977.0091423.0029735.0139354.0046156-5.5311206-3.8969037-7.2585806-8.2413386-10.5966027-14.4429128-3.3378447-6.3836224-4.2914892-13.6789942-4.2914892-18.7862826,0-3.4653493.2383224-8.7546859,1.1919669-13.3143654,0,0,2.3517137,1.1581491,4.2867849,2.0752686,3.2094967,1.5211358,5.3188938,2.0803724,5.7269266.6604237.4389215-1.5278373-.5733939-3.7339835-4.5621204-7.0330841l-4.2916667-3.4653937c2.2370349-13.7593226,5.6591135-26.6214968,6.0161976-41.6699349.2867857-12.0853853-1.8697433-22.1259913-5.9224663-29.7292295.9045599.3516697,1.7539994.7552645,2.5465434,1.2162873,2.2485738,1.3080659,4.1123702,3.0949067,5.6401187,5.4171519v-19.1427455c-1.5355594,2.4616438-3.407078,4.2893589-5.7381992,5.6321746-1.5891709.9154331-3.3958054,1.6120267-5.4789293,2.1034058-.8697657-1.1549537-1.7958057-2.229579-2.7750133-3.2219232-11.8384613-12.2990581-33.6575739-11.2331472-43.6871097,2.7863747-.3179322.431982-.6402104.8977152-.9270981,1.3385957l-8.8533504.0000038h-5.0468424l72.5065424-40.5100106v-20.6248266c-3.457139,4.9649607-8.1956269,5.8562509-16.7419471,5.8562509H20.5846562c-9.412358,0-15.3235517-2.5243088-19.0710268-8.3140336v19.0893115c1.5287249-2.461555,3.3918111-4.2893146,5.7124586-5.6322634,3.5445682-2.0510814,8.1713064-3.0064123,14.5606539-3.0064123h73.3034356l-86.9747076,48.6121281c-.7479861-1.3322531-1.4260288-2.6531893-2.0286249-3.9603675-1.686078-3.6686304-2.9529999-7.5529048-3.2254823-11.5859479-.4891225-5.9442771,1.6758745-13.7232941,8.3550496-12.9796301,1.8011473.2160556,3.2578083,1.1877221,4.5661953,2.3772633,13.3764471,14.2028488,24.8618133-5.0125203,8.6447575-12.7539883-5.167926-2.2507463-11.7557004-1.1437131-16.2964605,2.0101046-5.076135,3.5399334-7.3316307,9.7931048-7.9208837,15.7251526-.9116508,7.4521426,1.2341392,14.1220777,4.7026093,20.6308551.3143015.590791.6417396,1.1834459.982048,1.7777873L.0108226,443.1121252v2.1365579h9.301851c21.081012,30.7849932,71.1986541,64.0969136,77.9503225,69.4056443-15.9741674-9.8494599-56.0291021-27.9055973-75.3412029-38.4842704-1.1049815-.6340174-6.9916773-3.5431037-6.9916773-3.5431037,0,0,.5918561,4.7819806,16.2702729,18.1086394,8.6574486,7.358747,17.8041459,15.1391515,28.3918726,24.4658998,13.590056,12.0375433,26.9417897,24.4401592,38.8627015,36.6602832-10.2519451-9.301851-29.8026345-22.7987971-42.2004574-30.0941246-13.113145-7.8429808-24.3190009-13.6794824-32.9020681-13.4969461-6.914278.1825363-9.0600669,3.64793-8.8217446,8.2076096.2385887,5.1067559,5.7222223,11.3078419,9.536978,14.9557719,1.2154885,1.1622765,2.6926434,2.5166754,4.1860415,3.8607337-11.5837101.6083656-20.0842298,14.9835984-17.8289102,35.1855248,5.097081,45.6576851,47.1840134,54.1403196,47.1840134,54.1403196,0,0-23.7829753-7.89353-34.5010914-34.3020012-9.4455545-23.2731784-2.7065788-41.5304032,10.2651704-43.1077689,19.2002624-2.3347604,31.0180343,15.4272242,35.2391363,28.7920944-3.9266854,2.3245335-6.1892226,8.6725149-6.2944474,14.3306746-.0870062,4.6785101,1.4730039,9.8664015,4.8955854,10.38537,4.5544116.6905888,6.6368787-8.9987276,4.6677395-18.879543,4.5787428-.5950934,9.8585585.8082229,14.4772188,3.2828574ZM60.7136173,590.7767573c-.2337068,2.9182286-1.2398462,6.6416068-3.3053028,6.5656705-2.3281698-.0855949-3.1580438-2.9451606-3.01238-6.352261.1634607-3.8233749,2.113993-8.0811546,5.8505354-8.7860916.4428228,2.1147229.7004991,6.5661587.4671474,8.5726822ZM82.4294456,609.3804592s7.9249956,2.3190942,16.3450094-2.0065235c1.8682344,4.1950951,3.0356146,8.5726822,2.8021741,12.4026603-.4668811,10.7607434-7.2386982,14.0440668-12.8426913,13.8615305-10.5076646-.3645844-16.5787162-11.3078863-16.5787162-23.3459178,0-8.7547303,1.8678793-17.6915086,6.0710517-24.2576673,2.5684672,1.4588702,6.0710517,4.0125144,7.2386982,5.1068002,4.6700534,4.0125144,9.1066663,8.7547303,11.9087516,13.3143654-7.6708738,4.5275482-14.9442774,4.9247521-14.9442774,4.9247521ZM12.3529038,445.2486831h32.3535272c-2.0337566,3.8670301-3.2393033,8.258987-3.2022578,12.6417962.8972656-5.6128987,4.7647583-10.3409082,9.5547696-13.2362708,9.3392666-5.5611111,21.9284559-5.399118,31.0250464.5944301,10.3278355,6.7384431,16.4296871,20.1213761,16.7837534,35.2376717.2796848,11.9433682-2.6195934,21.8166604-4.9611884,36.2542476-15.4878477-11.493618-61.4889478-43.0405327-81.5536503-71.4918749ZM66.9970733,528.1512291c-13.3513786-12.5851522-30.0409569-27.1763841-38.3857017-34.2896635,15.4972564,8.9372666,47.4457686,22.0695839,64.1353469,31.0063622-.7153222,4.5601233-1.1919669,9.8490161-1.1919669,14.0440668.2383224,5.4718728,1.1919669,12.2200796,3.8144006,17.5094162-8.5830671-9.4838991-17.6431341-18.2386294-28.372079-28.2701817ZM67.4851681,573.8144174c-3.0357921,0-5.137112.3646288-7.2386982,1.2768221-6.8569386-21.0925509-18.3636044-33.6730432-32.2762166-38.1468911-8.6635731-3.6586257-13.5884583-8.0582254-14.8924412-9.5675116-3.2033723-3.7078435-4.9707745-6.8410948-4.9707745-8.8925312,0-1.4588702,1.1922332-2.3711079,3.0995223-2.3711079,8.8217446.1825363,25.7495565,10.0315524,41.2469016,19.5159397,14.0669671,8.572194,32.6637457,21.7045113,44.5849238,30.4592415,2.4431372,1.8690332,4.2248299,3.1811821,5.7375779,4.2307325-1.1865525-.2175968-2.4429597-.3351159-3.7678013-.3351159-6.7715508,0-12.8426025,3.2833012-17.2792154,7.8429808-4.4366129-2.5536442-9.1069326-4.0125588-14.2437783-4.0125588ZM83.5968258,578.9212621c4.6699647-4.3776314,9.8071654-7.29586,15.6447766-7.29586,8.4060784,0,13.0763981,5.2893365,13.5431904,11.4909108.4671474,6.7482068-4.4366129,14.5911875-11.6750448,19.1508671-2.5686448-7.6604445-6.7718171-14.4086956-12.3758102-19.515984-1.1676465-1.0942414-3.5026732-2.9182286-5.137112-3.8299338Z"/>
</svg>