<?xml version="1.0" encoding="UTF-8"?>
<svg id="_レイヤー_1" data-name="レイヤー_1" xmlns="http://www.w3.org/2000/svg" version="1.1" viewBox="0 0 392.3393555 117.9560547">
  <!-- Generator: Adobe Illustrator 29.6.1, SVG Export Plug-In . SVG Version: 2.1.1 Build 9)  -->
  <path d="M11.4677734,72.2011719l1.4042969-60.3818359C12.9887695,2.6914062,10.1806641,1.5214844,1.4038086.8193359v-.8193359h22.5849609c1.1704102,3.5107422,2.4575195,7.3720703,4.2128906,11.8193359l22.2333984,59.6796875,21.2978516-57.3398438c1.8720703-5.1484375,3.9785156-11.3505859,4.4467773-14.1591797h20.9462891v.8193359c-7.9570312.4677734-9.7124023,1.4042969-9.5957031,5.9677734l1.4042969,71.6162109c.1171875,4.5634766,1.5214844,5.5,9.5957031,5.9677734v.8193359h-28.3188477v-.8193359c7.9575195-.4677734,9.7128906-1.4042969,9.5957031-5.9677734l-1.5209961-74.4248047-30.6591797,81.2119141h-1.5214844L15.5634766,3.9785156l-1.5214844,68.2226562c-.2338867,9.1279297,2.4575195,11.4677734,13.2231445,12.1699219v.8193359H0v-.8193359c8.7763672-.7021484,11.3505859-3.0419922,11.4677734-12.1699219Z"/>
  <path d="M102.2675781,57.5742188c0-17.2021484,11.3510742-29.7236328,26.7978516-29.7236328,13.2231445,0,21.4145508,7.8408203,21.6489258,21.1806641h-40.2553711c-.1166992,1.2871094-.2338867,2.6914062-.2338867,4.0957031,0,16.9677734,9.7124023,27.5,21.765625,27.5,8.1914062,0,15.4467773-5.0322266,20.3613281-14.0429688l.8193359.46875c-5.0322266,12.8720703-15.0957031,19.3076172-25.1591797,19.3076172-14.2763672,0-25.7446289-10.765625-25.7446289-28.7861328ZM139.0117188,47.1591797c2.3408203,0,2.9257812-.7021484,2.9257812-3.1601562,0-6.7871094-4.3295898-14.3925781-13.6914062-14.3925781-8.659668,0-15.7978516,6.2021484-17.5527344,17.5527344h28.3183594Z"/>
  <path d="M157.4956055,83.2011719l-1.4033203-13.1064453h.8183594c3.1601562,9.2451172,8.7763672,14.5107422,16.1494141,14.5107422,7.9570312,0,13.2226562-4.5634766,13.2226562-10.8828125,0-4.7978516-3.0419922-9.0107422-11.4677734-12.5214844l-4.0957031-1.7548828c-9.8300781-4.2128906-12.7548828-9.7128906-12.7548828-15.7978516,0-9.3613281,7.1376953-15.7978516,16.6162109-15.7978516,5.6171875,0,9.7128906,1.0537109,13.8085938,2.6914062l1.0537109,11.7021484h-.8193359c-3.0429688-7.9570312-8.5429688-12.6376953-14.1591797-12.6376953-5.6171875,0-10.8837891,3.3935547-10.8837891,9.5957031,0,4.796875,1.9902344,8.4248047,11.234375,12.4033203l4.0957031,1.7558594c9.7128906,4.2128906,13.1064453,9.7119141,13.1064453,16.03125,0,10.0634766-8.0742188,16.9677734-19.0742188,16.9677734-6.5537109,0-11.9365234-1.4042969-15.4472656-3.1591797Z"/>
  <path d="M198.3325195,83.2011719l-1.4042969-13.1064453h.8193359c3.1601562,9.2451172,8.7763672,14.5107422,16.1494141,14.5107422,7.9570312,0,13.2226562-4.5634766,13.2226562-10.8828125,0-4.7978516-3.0419922-9.0107422-11.4677734-12.5214844l-4.0957031-1.7548828c-9.8300781-4.2128906-12.7548828-9.7128906-12.7548828-15.7978516,0-9.3613281,7.1376953-15.7978516,16.6162109-15.7978516,5.6171875,0,9.7128906,1.0537109,13.8085938,2.6914062l1.0537109,11.7021484h-.8193359c-3.0429688-7.9570312-8.5429688-12.6376953-14.1591797-12.6376953-5.6171875,0-10.8828125,3.3935547-10.8828125,9.5957031,0,4.796875,1.9892578,8.4248047,11.2333984,12.4033203l4.0957031,1.7558594c9.7128906,4.2128906,13.1064453,9.7119141,13.1064453,16.03125,0,10.0634766-8.0742188,16.9677734-19.0742188,16.9677734-6.5537109,0-11.9365234-1.4042969-15.4472656-3.1591797Z"/>
  <path d="M266.902832,76.296875c-6.0849609,6.5527344-11.4677734,9.8300781-17.4365234,9.8300781-7.0205078,0-12.0527344-4.6806641-12.0527344-11.46875,0-5.3828125,3.0429688-9.2441406,15.6806641-12.9882812l13.8085938-4.0957031v-12.2871094c0-7.2558594-3.1601562-11.9365234-9.7128906-11.9365234-4.7978516,0-12.4042969,3.7451172-12.4042969,6.2021484,0,1.1699219,1.4042969,3.6279297,1.4042969,5.6171875,0,2.4570312-1.6376953,3.7441406-3.8613281,3.7441406-1.8720703,0-3.6279297-1.0527344-3.6279297-3.1591797,0-2.5742188,2.3408203-6.2021484,6.0849609-9.4785156,5.1494141-4.6806641,11.234375-7.9570312,16.8505859-7.9570312,7.9580078,0,13.3408203,4.9140625,13.3408203,15.0947266v32.4150391c0,3.3935547,1.2871094,5.7333984,4.0957031,5.7333984,2.5742188,0,4.5634766-2.1064453,6.3193359-4.6806641l.7021484.46875c-1.9902344,3.9785156-5.734375,8.7763672-11.8193359,8.7763672-6.2021484,0-7.2548828-5.0322266-7.3720703-9.8300781ZM254.1469727,81.0947266c4.2128906,0,8.3085938-2.4570312,12.7558594-6.6699219v-15.2128906l-11.3515625,3.6279297c-7.0205078,2.1064453-10.0634766,4.7978516-10.0634766,9.5957031,0,5.3828125,3.5107422,8.6591797,8.6591797,8.6591797Z"/>
  <path d="M284.5688477,103.9130859c0-6.6699219,4.9150391-13.1054688,15.5634766-17.9033203-5.6162109,0-11-2.1064453-11-7.4892578,0-4.5644531,4.0957031-7.9580078,11.234375-11.3515625-7.8408203-2.9248047-13.4570312-9.5947266-13.4570312-18.4882812,0-12.4042969,10.2978516-20.8300781,22.7011719-20.8300781,2.9257812,0,5.734375.7021484,8.4257812,1.4042969,12.2871094,3.2763672,14.7441406-.234375,18.7226562-.234375,2.1064453,0,3.6279297,1.1708984,3.6279297,2.9257812,0,2.1064453-1.5214844,3.3935547-4.6806641,3.3935547-2.3408203,0-7.7236328-1.5214844-12.6376953-3.5107422,5.1484375,3.3935547,8.6591797,9.0107422,8.6591797,15.9150391,0,12.4042969-10.4150391,20.8291016-22.8193359,20.8291016-2.3398438,0-4.5634766-.3505859-6.7871094-.9355469-4.6806641,2.5742188-6.6699219,4.6806641-6.6699219,7.1376953,0,2.9257812,2.9257812,3.9785156,6.4365234,3.9785156h16.9677734c13.9248047,0,20.2441406,7.1386719,20.2441406,15.2128906,0,12.0527344-15.5634766,23.9892578-33.2333984,23.9892578-13.1064453,0-21.2978516-5.3828125-21.2978516-14.0429688ZM311.1323242,114.328125c13.9257812,0,21.765625-7.6064453,21.765625-16.265625,0-6.4355469-4.5634766-12.0527344-15.7978516-12.0527344h-14.0419922c-7.4892578,3.3935547-11.234375,8.7763672-11.234375,14.2763672,0,8.4248047,6.5537109,14.0419922,19.3085938,14.0419922ZM310.0795898,66.8183594c7.9570312,0,13.9248047-6.3193359,13.9248047-17.0849609,0-12.7548828-7.2548828-20.1269531-15.5634766-20.1269531-7.9570312,0-13.9248047,6.3183594-13.9248047,17.0849609,0,12.7548828,7.1376953,20.1269531,15.5634766,20.1269531Z"/>
  <path d="M341.4360352,57.5742188c0-17.2021484,11.3505859-29.7236328,26.796875-29.7236328,13.2236328,0,21.4150391,7.8408203,21.6494141,21.1806641h-40.2548828c-.1171875,1.2871094-.234375,2.6914062-.234375,4.0957031,0,16.9677734,9.7128906,27.5,21.765625,27.5,8.1914062,0,15.4462891-5.0322266,20.3613281-14.0429688l.8193359.46875c-5.0322266,12.8720703-15.0957031,19.3076172-25.1591797,19.3076172-14.2763672,0-25.7441406-10.765625-25.7441406-28.7861328ZM378.1801758,47.1591797c2.3398438,0,2.9248047-.7021484,2.9248047-3.1601562,0-6.7871094-4.3291016-14.3925781-13.6904297-14.3925781-8.6601562,0-15.7978516,6.2021484-17.5537109,17.5527344h28.3193359Z"/>
</svg>