<?xml version="1.0" encoding="UTF-8"?>
<svg id="_レイヤー_1" data-name="レイヤー_1" xmlns="http://www.w3.org/2000/svg" version="1.1" viewBox="0 0 288.05693 288.05693">
  <!-- Generator: Adobe Illustrator 29.6.1, SVG Export Plug-In . SVG Version: 2.1.1 Build 9)  -->
  <defs>
    <style>
      .st0 {
        fill: #560c23;
      }
    </style>
  </defs>
  <path class="st0" d="M144.0307289,0C64.6137944,0,0,64.6092667,0,144.0262011s64.6137944,144.0307289,144.0307289,144.0307289c79.4168724,0,144.0262011-64.6137944,144.0262011-144.0307289S223.4476013,0,144.0307289,0ZM285.7657641,144.0262011c0,4.6134679-.2293027,9.1740294-.6622921,13.6758541l-23.5536696-2.4766176c.3456597-3.6989243.5255912-7.4328921.5255912-11.1947707,0-3.7634292-.1799936-7.4988856-.5258393-11.1992364l23.5543518-2.4766176c.4327413,4.5003982.6618579,9.059409.6618579,13.6713884ZM94.9696342,251.4001358l-9.6306499,21.6313603c-8.3512192-3.814537-16.269573-8.4162824-23.660661-13.7106495l13.8887824-19.119513c6.1702079,4.3971903,12.6697631,8.1313442,19.4025284,11.1988023ZM97.0623234,252.3345271c6.9100299,2.9865168,14.0494866,5.2805358,21.312495,6.8856545l-4.9340699,23.2110491c-9.0197137-1.9920863-17.7183292-4.8451275-26.0072143-8.469685l9.6287892-21.6270186ZM120.6136361,259.6884006c7.3459965,1.4753025,14.8052488,2.2479352,22.2715098,2.319697v23.7430908c-9.307629-.0742427-18.4060511-1.042189-27.2088049-2.8366048l4.9372951-23.2261829ZM145.1763118,262.0080356c7.4645243-.0717617,14.9223501-.8442705,22.2671061-2.3193248l4.9373571,23.2266791c-8.8013272,1.7939197-17.8983228,2.7616178-27.2044632,2.8357985v-23.7431528ZM169.6821736,259.2205537c7.2628844-1.6051187,14.4024651-3.8992617,21.312681-6.8859026l9.6327587,21.6267085c-8.2900635,3.6251157-16.9900436,6.4785911-26.0111838,8.4707394l-4.9342559-23.2115453ZM193.0875438,251.4002598c6.7325793-3.0674581,13.2321345-6.801674,19.4022803-11.1988643l13.8897748,19.1208775c-7.3900956,5.293747-15.307395,9.8948721-23.6574357,13.7090369l-9.6346195-21.6310502ZM144.0262011,259.7886934c-30.9174049,0-59.9866813-12.0420804-81.8512517-33.9067128-11.0978893-11.102355-11.0978893-29.1632427,0-40.2655976,4.2547212-4.2504415,9.5990797-6.9708755,15.4857759-7.9346661,2.4114304,4.7510991,5.3633999,9.2725855,8.8196243,13.4863088-5.1306859-1.4598585-10.8801231-.1792493-14.9035568,3.8502628-5.9158475,5.9203132-5.9158475,15.5459392,0,21.4618487,19.6629051,19.6584394,46.0472252,29.9418917,72.6642593,29.9418917,16.8065767,0,33.7068716-4.1098332,49.0604744-12.5352951,3.8700484,1.7137847,8.0877413,2.6232423,12.4476552,2.6232423,3.4987729,0,6.9055642-.5849482,10.1150572-1.6985888-20.3728316,16.1862748-45.4276057,24.9773061-71.8380379,24.9773061ZM2.2911659,144.0262011c0-4.6119793.2291786-9.1709902.6619199-13.6713884l23.5500722,2.4757493c-.3459698,3.7006609-.5260874,7.4363654-.5260874,11.2001048,0,3.7621887.1800556,7.4964667.5258393,11.1957011l-23.5494519,2.4756873c-.4330514-4.5018868-.6622921-9.0623862-.6622921-13.6758541ZM42.3359582,83.9886602l-20.4441592-11.7997527c4.6568847-7.8869697,10.0545838-15.2849423,16.0985729-22.0995173l17.552291,15.8031527c-5.0071962,5.6541683-9.421443,11.7103761-13.2067047,18.0961173ZM41.1811337,85.9701404c-3.6970015,6.5251091-6.7454183,13.378139-9.1205647,20.4767218l-22.4810268-7.3049986c2.9225081-8.7313022,6.6739046-17.0850643,11.159355-24.9702974l20.4422365,11.7985742ZM31.3593878,108.6235939c-2.221513,7.098955-3.7709961,14.4324847-4.6173754,21.9244236l-23.5477153-2.4755012c1.0367309-9.2121741,2.9553187-18.1604362,5.6776754-26.7560298l22.4874153,7.3071075ZM26.7417023,157.5089125c.8462552,7.4917529,2.3958004,14.8252825,4.6174374,21.9244236l-22.4859887,7.3066113c-2.7225427-8.5955937-4.6413787-17.5436697-5.6783577-26.7556577l23.546909-2.4753772ZM32.0602589,181.6101298c2.3747743,7.0972183,5.4227568,13.9491938,9.1190141,20.4733725l-20.4390112,11.8008071c-4.4853884-7.885109-8.236909-16.2386851-11.1595411-24.9696771l22.4795382-7.3045025ZM42.3340355,204.0650445c3.7856958,6.3867956,8.200625,12.4441198,13.2085654,18.0992185l-17.5530353,15.7998034c-6.0430587-6.8139548-11.4400756-14.2111211-16.0964021-22.0970984l20.4408719-11.8019235ZM62.1749494,62.1748874c11.1068207-11.1068207,29.1677084-11.0978272,40.2655976,0,4.2466581,4.2509997,6.967092,9.5957304,7.9344801,15.483233-4.7487422,2.4100039-9.2681818,5.3599265-13.4803545,8.813732.3806412-1.3397801.5876152-2.7375525.5876152-4.1686319,0-4.0497939-1.5796888-7.8624702-4.4436462-10.7264276-5.924841-5.9203753-15.5549327-5.9203753-21.4618487,0-32.078804,32.078804-39.1864424,82.0585979-17.3951222,121.7364563-3.1443678,7.1391465-3.4541156,15.2363155-.915536,22.5606036-35.9905326-45.3989506-33.0264685-111.7636821,8.9088148-153.6989653ZM193.1098725,36.6063067l9.6109883-21.5820512c8.350785,3.8141648,16.2687047,8.415352,23.6593584,13.709285l-13.8804712,19.104007c-6.1218912-4.3774667-12.6115225-8.1305999-19.3898756-11.2312408ZM191.0169352,35.6725356c-6.8517894-2.9726234-13.9836791-5.2875446-21.3199999-6.9056882l4.9194942-23.1422645c9.0207061,1.9919002,17.7201899,4.8450655,26.0098193,8.469685l-9.6093137,21.5782677ZM167.459048,28.2945347c-7.2640008-1.4545244-14.7172988-2.2272192-22.2827361-2.298981V2.3057416c9.3061404.0741807,18.403136,1.0418168,27.2044632,2.8356125l-4.9217271,23.1531807ZM142.8851459,25.9954297c-7.5668639.0712035-15.0217125.8438983-22.2873259,2.2987329l-4.921541-23.1520023c8.8027538-1.7942918,17.9012379-2.7622381,27.2088669-2.8364188v23.6896882ZM118.3599327,28.7664752c-7.3361347,1.6180817-14.4679624,3.9331268-21.3198758,6.9058123l-9.6052201-21.5782057c8.2885129-3.6239993,16.9866323-6.4767924,26.0058498-8.4686306l4.9192461,23.141024ZM94.9471816,36.6060586c-6.778291,3.1006409-13.2679224,6.8538982-19.3899996,11.2314889l-13.8794788-19.1025805c7.3915841-5.2946153,15.3106822-9.8963607,23.6625837-13.7108976l9.6068947,21.5819892ZM144.0262011,28.2727023c30.9219327,0,59.991209,12.0376146,81.8557795,33.9021851,5.3789059,5.3744402,8.3412954,12.5254333,8.3412954,20.1327988,0,7.6029619-2.9623895,14.753955-8.3412954,20.1283331-4.2531706,4.2532326-9.5951102,6.9732324-15.4831709,7.9380154-2.410314-4.7500447-5.3606088-9.2708488-8.8148485-13.4840759,1.3400902.3808273,2.7382348.5878013,4.1696863.5878013,4.049856,0,7.8625322-1.5796268,10.7264896-4.4435842,2.8639574-2.8639574,4.4436462-6.6766337,4.4436462-10.7309554,0-4.0497939-1.5796888-7.8624702-4.4436462-10.7264276-32.0704928-32.0793622-82.0603966-39.1866284-121.7386271-17.3984095-7.1452249-3.1475931-15.2500848-3.4554181-22.5790247-.9084653,20.3781657-16.2006023,45.444042-24.9972158,71.8637158-24.9972158ZM256.6948131,108.6245242l22.4905165-7.3080998c2.7222326,8.5957177,4.6406964,17.5439798,5.6773653,26.7561539l-23.5518709,2.4763075c-.8460692-7.4919389-2.3951181-14.8254686-4.6160109-21.9243616ZM255.9938801,106.4477305c-2.3743401-7.0979626-5.4218885-13.9505583-9.1179597-20.4751092l20.4429808-11.8014273c4.4852643,7.885295,8.2365989,16.2391813,11.1589209,24.9705454l-22.4839419,7.305991ZM245.7212199,83.9909551c-3.7845794-6.3858032-8.1982681-12.442011-13.2050921-18.0962413l17.5516087-15.8061918c6.043927,6.8146991,11.4415641,14.2127337,16.0983248,22.0999515l-20.4448415,11.8024817ZM196.6426965,196.6381688c2.4343793-2.4343793,5.6697363-3.7723607,9.110951-3.7723607,3.4368109,0,6.672168,1.3379814,9.1065473,3.7723607,5.0209035,5.0253692,5.0209035,13.2011225,0,18.222026-2.4343793,2.4343793-5.6697363,3.7723607-9.1065473,3.7723607-3.4412146,0-6.6765717-1.3379814-9.110951-3.7723607-5.0209035-5.0209035-5.0209035-13.1966568,0-18.222026ZM216.4801371,195.0182884c-2.8639574-2.8640194-6.6766337-4.4436462-10.7264896-4.4436462-4.0542597,0-7.8669359,1.5796268-10.7308934,4.4436462-21.6775681,21.6775061-54.5773836,27.2666733-82.1556654,14.0509131.6318383-5.8735471-.4183518-11.8924785-3.1500741-17.2723147,9.9349396,7.1689801,21.8222701,11.048084,34.3137142,11.048084,15.7115432,0,30.4788334-6.1173014,41.5901818-17.2285878,11.0844301-11.0933615,29.1497834-11.1112864,40.2610699,0,2.2180397,2.2221953,4.0159289,4.7630077,5.387031,7.5393873-3.0228629,5.39466-6.5560591,10.5507137-10.6121794,15.3761796.8790039-4.7511611-.5097131-9.8438884-4.176695-13.5136614ZM82.3077482,220.9147899c3.8842519,0,7.7729696-1.476729,10.7308934-4.4346528,5.9159095-5.9159095,5.9159095-15.5415355,0-21.4618487-21.6722341-21.6678304-27.2660531-54.583462-14.0524637-82.1526883,1.1039649.1189,2.2125195.1850175,3.3215704.1850175,4.7909805,0,9.5810928-1.1163697,13.9503102-3.3352777-7.1676776,9.9343814-11.0460992,21.8205954-11.0460992,34.3108611,0,15.7115432,6.1172394,30.4788954,17.2285878,41.5901818,11.0978272,11.102355,11.0978272,29.1632427,0,40.2655976-2.2201485,2.2159929-4.7594724,4.0149985-7.5384569,5.3865969-5.3954663-3.023235-10.5524504-6.5569894-15.3790947-10.6139781.9197536.1700698,1.851788.2601906,2.7847528.2601906ZM73.1967352,214.8601947c-5.0209035-5.0209035-5.0209035-13.1966568,0-18.222026,2.5104207-2.5104207,5.808484-3.7678949,9.111013-3.7678949,3.2980012,0,6.5960645,1.2574742,9.110951,3.7678949,5.0209035,5.0253692,5.0209035,13.2011225,0,18.222026-5.0343006,5.0253692-13.2055262,5.0164377-18.221964,0ZM55.4372221,190.7879426c-15.6168326-29.5662745-15.0485689-64.7039153.0338031-93.4584199,1.3708541,2.4498233,3.0665898,4.7090469,5.0839818,6.7264389,4.5452415,4.5452415,10.1734218,7.3639214,16.0611104,8.4639168-9.5088968,20.3355552-9.1706801,43.4077326.0045898,63.0192819-6.0999967,1.1380781-11.6306133,4.0263489-16.0657002,8.4572802-2.0642822,2.0650885-3.7643596,4.3569367-5.1177849,6.7915021ZM91.4186992,91.4142335c-5.0343006,5.0253692-13.2055262,5.0164377-18.221964,0-2.4343793-2.4343793-3.7723607-5.6697363-3.7723607-9.111013,0-3.4367489,1.3379814-6.6721059,3.7723607-9.1064852,2.5104207-2.5104827,5.808484-3.767957,9.111013-3.767957,3.2980012,0,6.5960645,1.2574742,9.110951,3.767957,2.4343793,2.4343793,3.7724227,5.6697363,3.7724227,9.1064852,0,3.4412767-1.3380434,6.6766337-3.7724227,9.111013ZM71.5767928,93.0341759c2.9579238,2.9579238,6.8421757,4.4346528,10.7309554,4.4346528,3.8842519,0,7.7729696-1.476729,10.7308934-4.4346528,21.6780023-21.6602635,54.5873075-27.2599747,82.1323444-14.0579838-.1175975,1.0992511-.1825986,2.2101626-.1825986,3.3314942,0,4.9226575,1.1567473,9.6647631,3.3278968,13.9279196-9.9292954-7.156017-21.8058337-11.0281123-34.2855553-11.0281123-15.7115432,0-30.4788954,6.1172394-41.5901818,17.2285258-11.0978893,11.0978893-29.1677704,11.0978893-40.2655976,0-2.2195903-2.2195903-4.0182858-4.7581078-5.3861627-7.536162,3.0208781-5.3910626,6.5516554-10.543891,10.6046125-15.3666279-.1664724.9053641-.2602526,1.8302037-.2602526,2.7699911,0,4.0543217,1.5796888,7.866998,4.4436462,10.7309554ZM205.7536475,67.1331466c-4.0542597,0-7.8669359,1.5796888-10.7308934,4.4436462s-4.4436462,6.6766337-4.4436462,10.7264276c0,4.0543217,1.5796888,7.866998,4.4436462,10.7309554,21.6637368,21.6681405,27.2573697,54.5801747,14.0559371,82.1365-1.0986308-.1174114-2.2087981-.1822885-3.3295094-.1822885-4.924084,0-9.6676162,1.1573055-13.931703,3.3287031,7.158498-9.9303498,11.0319578-21.8089349,11.0319578-34.2908894,0-15.7115432-6.1172394-30.4788954-17.2285258-41.5901818-5.3789059-5.3743781-8.3413574-12.5253712-8.3413574-20.1283331,0-7.6073656,2.9624515-14.7583587,8.3413574-20.1327988,2.219032-2.2190941,4.7569914-4.0176035,7.5344254-5.3890158,5.3927372,3.0214363,10.5465581,6.553454,15.3700392,10.6078378-.9059223-.1666584-1.8313201-.2605628-2.7717278-.2605628ZM214.8601947,73.1967352c2.4343793,2.4343793,3.7723607,5.6697363,3.7723607,9.1064852,0,3.4412767-1.3379814,6.6766337-3.7723607,9.111013s-5.6697363,3.7723607-9.1065473,3.7723607c-3.4412146,0-6.6765717-1.3379814-9.110951-3.7723607s-3.7724227-5.6697363-3.7724227-9.111013c0-3.4367489,1.3380434-6.6721059,3.7724227-9.1064852s5.6697363-3.7724227,9.110951-3.7724227c3.4368109,0,6.672168,1.3380434,9.1065473,3.7724227ZM164.1404548,97.1100819c-1.9010351,0-4.186929-.7685392-6.8335544-1.6582112-4.0425371-1.3590695-9.0741087-3.0504015-15.4254266-3.0504015-8.4201899,0-16.0846795,2.6778234-21.5813069,7.5403797-5.7555775,5.0914867-8.7977298,12.1250684-8.7977298,20.340269,0,8.6994839,2.8179356,15.2498987,8.6152553,20.0255594,5.1224367,4.2199257,11.8882609,6.6079111,18.9508698,8.878175l1.1690901.3689807c12.8338165,4.0453282,24.9560939,7.8662537,24.9560939,21.808997,0,12.5336204-8.2504302,20.6322159-21.0188734,20.6322159-6.8550767,0-13.4729736-3.9176829-19.1382443-11.3291767-5.2548579-6.8741801-9.5719132-16.6269552-12.5628337-28.3411768v38.6118522c-2.9877573-2.0190047-5.8068093-4.3345461-8.4133672-6.9411039-22.0391059-22.0391059-22.0391059-57.9013729,0-79.9404789,10.6772426-10.6772426,24.8718033-16.5573023,39.9703015-16.5573023,9.4481133,0,18.5419457,2.3033847,26.6417817,6.6430787-1.5478085,1.5293253-3.5173181,2.9683438-6.5320558,2.9683438ZM169.6015424,114.5806253c-1.8898087-4.0094163-4.0852096-7.6055669-6.5332963-10.6761882-1.9278294-2.4182531-3.9790866-4.4757126-6.1288379-6.1587334,2.684522.9009604,5.0225781,1.6557302,7.2010465,1.6557302,2.112847,0,3.8383542-.5801103,5.2371811-1.3693655l.2239066,16.5485569ZM126.6506785,98.307827c-3.4782429,3.5186826-5.7860933,8.6127743-5.7860933,15.410913,0,14.5825207,11.5853978,19.2625403,23.425404,22.7980934l1.9236738.5958024c7.1358592,2.20334,14.5146044,4.481729,19.9662024,8.6795121,5.9084666,4.5498313,8.7807353,11.0007597,8.7807353,19.7213937,0,8.2915521-3.1899555,15.1272773-9.2250131,19.7679738-1.5406137,1.1847821-3.2528478,2.2196523-5.1063105,3.095555,4.3496179-4.0324893,6.8557589-9.9207361,6.8557589-17.0132406,0-15.6227869-13.5011946-19.8785625-26.5577392-23.9942259l-1.1576156-.3651972c-6.8437263-2.1999907-13.3850857-4.5028171-18.1949835-8.4651573-5.2358166-4.3131478-7.7809707-10.285065-7.7809707-18.2571315,0-7.5400075,2.774891-13.9800817,8.0247249-18.6240034,1.453408-1.2858192,3.0741567-2.4059103,4.8322265-3.3502875ZM126.6241322,186.0094909c-1.7686139-.7426752-3.4642875-1.2415341-5.2211789-1.2415341-2.5408745,0-4.7450828,1.0929246-6.6377446,2.5041563v-20.5119514c2.4321464,5.9800423,5.2812801,11.1517881,8.4509538,15.2982774,1.1007396,1.4400108,2.2384455,2.7581445,3.4079698,3.9510518ZM121.4029533,187.0593089c2.3555468,0,4.8599512,1.2419062,7.7595724,2.6797462,3.9253738,1.9464366,8.8106308,4.3689073,15.0123469,4.3689073,8.9258714,0,17.078924-2.4894566,22.9574951-7.0100746,6.6202539-5.0907425,10.119523-12.5545225,10.119523-21.5843461,0-9.4794354-3.1644636-16.5241815-9.6740047-21.5368357-5.7787125-4.4497866-13.3581672-6.7900755-20.6882236-9.0534547-.6444292-.1989729-1.2860053-.3969535-1.9175335-.5938176-11.4967035-3.4333376-21.8160677-7.5931001-21.8160677-20.6106936,0-13.266992,9.4046345-19.2056643,18.7254126-19.2056643,7.0452422,0,13.7522056,3.7415348,19.3951476,10.8196497,4.6740653,5.8626929,8.4539929,13.9225235,10.8020969,22.9605342l-.4548839-33.6120369c4.4783797,2.5132118,8.6462053,5.6438103,12.3771339,9.374739,22.0391059,22.0391059,22.0391059,57.9013729,0,79.9404789-10.6772426,10.6772426-24.8718033,16.5573023-39.9702394,16.5573023-11.0397108,0-21.589308-3.1562144-30.640902-9.0201479,2.3370637-2.2942051,4.9556542-4.4742861,8.0131265-4.4742861ZM184.0009683,60.555007c-4.4451348,4.4417235-7.3556102,10.0051507-8.4822759,16.052427-20.3322679-9.5010198-43.3947076-9.1610663-63.0003025.010358-1.140373-6.0963373-4.0289539-11.6297449-8.4579625-16.0627851-2.0655227-2.0655227-4.3579291-3.7665304-6.7930527-5.120576,29.5773148-15.610196,64.7129708-15.0423045,93.4604667.0351056-2.4528004,1.3753198-4.7123341,3.0708694-6.7268731,5.0854704ZM104.0604274,227.501923c4.5420783-4.5437529,7.3594557-10.1684599,8.4598232-16.0543498,10.0717025,4.7080545,20.8110931,7.005981,31.4746284,7.005981,10.8641209,0,21.6458119-2.3812868,31.5455218-7.0115632,1.1422337,6.0999967,4.0339778,11.6334043,8.4605675,16.059932,2.0418915,2.0418915,4.3243741,3.7536915,6.7777948,5.1251037-29.5614986,15.610134-64.6938674,15.0414361-93.448434-.04137,2.4511878-1.373211,4.7117139-3.0688847,6.7300984-5.0837337ZM232.5860909,190.7273452c-1.3726528-2.4496992-3.0678302-4.7110316-5.0841679-6.7309047-4.4420956-4.4420956-10.0060811-7.3518268-16.0541017-8.4780582,9.5033767-20.3281744,9.162679-43.393281-.0091175-63.0017291,6.1011131-1.1388844,11.6296209-4.0270311,16.0632192-8.4606915,2.0432561-2.0416434,3.7558623-4.3238779,5.1278948-6.7770505,15.6098859,29.5660264,15.0367223,64.6984572-.0437269,93.448434ZM205.7491818,234.2188102c-7.6028998,0-14.7538929-2.9623895-20.1282711-8.3368296-4.254225-4.254163-6.9759614-9.6039176-7.9414267-15.5046312,4.7475017-2.4093836,9.2788499-5.3322018,13.4901543-8.7847668-1.450865,5.1235531-.1712482,10.8631905,3.8531159,14.8875546,2.8639574,2.8639574,6.6766337,4.4435842,10.7308934,4.4435842,4.049856,0,7.8625322-1.5796268,10.7264896-4.4435842,32.0720434-32.0721054,39.1874347-82.0420375,17.4084574-121.72033,1.7157694-3.8712889,2.6259094-8.0904704,2.6259094-12.4521209,0-3.4953616-.5839558-6.8989276-1.6958597-10.1056296,16.1805066,20.371157,24.9655835,45.4222716,24.9655835,71.8286102,0,30.917467-12.0376146,59.9867433-33.9022471,81.8513137-5.3743781,5.3744402-12.5253712,8.3368296-20.1327988,8.3368296ZM245.7231426,204.0627497l20.4415542,11.8046525c-4.6562024,7.8861634-10.0531573,15.2834537-16.096154,22.0975325l-17.552353-15.8028425c5.0076923-5.6552227,9.4218772-11.7124849,13.2069528-18.0993425ZM246.8777811,202.0810834c3.6952649-6.5237446,6.7423171-13.3750998,9.116347-20.4717599l22.4825154,7.3054328c-2.9225081,8.7311161-6.6738426,17.0848162-11.1590449,24.9699872l-20.4398175-11.8036602ZM256.6951232,179.4324678c2.2210788-7.099079,3.7700658-14.4327328,4.6160109-21.9244856l23.5510646,2.4763075c-1.0369169,9.2120501-2.9556289,18.1601881-5.6780476,26.7557818l-22.4890279-7.3076037ZM248.5395897,48.3859015l-17.5552061,15.8095411c-1.1339845-1.2324786-2.2908558-2.449079-3.4824606-3.6404357-4.1413413-4.1421477-8.5373532-7.936899-13.1510692-11.3728416l13.877432-19.0997894c7.3451282,5.4418602,14.1481047,11.5744195,20.3113038,18.3035255ZM59.8296365,30.0837406l13.8764397,19.0984249c-4.613716,3.4359426-9.0097278,7.2306939-13.1510692,11.3728416-1.1909225,1.1906744-2.3470495,2.4065305-3.4804758,3.6383268l-17.5560124-15.806502c6.1631991-6.7288579,12.9661137-12.8614172,20.3111178-18.3030913ZM39.5175884,239.6666247l17.5568808-15.8031527c1.1334263,1.2317963,2.2896153,2.4477765,3.4805378,3.6384509,4.1639181,4.1639181,8.5668146,7.9454583,13.1602487,11.355847l-13.884999,19.114303c-7.3456244-5.4424184-14.1490351-11.57566-20.3126684-18.3054482ZM228.2276656,257.9734375l-13.8859913-19.1156055c4.5934342-3.4104507,8.9963306-7.191991,13.1602487-11.355909,1.1916048-1.1913567,2.3485381-2.4080191,3.4825226-3.6405597l17.5560745,15.8061918c-6.1636333,6.7299743-12.967106,12.8634019-20.3128544,18.3058824Z"/>
</svg>